# xmcd
#
# Track frame offsets: 
#        150
#        13081
#        24246
#        41348
#        57038
#        75108
#        89287
#        105769
#        120084
#        133599
#        149129
#        180489
#        198237
#        212009
#        225852
#        245759
#        261739
#        288522
#        311208
#        338685
#
# Disc length: 4757 seconds
#
# Revision: 1
# Processed by: cddbd v1.5.2PL0 Copyright (c) Steve Scherf et al.
# Submitted via: ExactAudioCopyFreeDBPlugin 1.0
#
DISCID=07129314
DTITLE=Various Artist - Concert For George [CD2)
DYEAR=2003
DGENRE=Rock
TTITLE0=Jeff Lynne - I Want To Tell You
TTITLE1=Eric Clapton - If I Needed Someone
TTITLE2=Gary Brooker - Old Brown Shoe
TTITLE3=Jeff Lynne - Give Me Love (Give Me Peace On Earth)
TTITLE4=Eric Clapton - Beware Of Darkness
TTITLE5=Joe Brown - Here Comes The Sun
TTITLE6=Joe Brown - That's The Way It Goes
TTITLE7=Tom Petty and the Heartbreakers - Taxman
TTITLE8=Tom Petty and the Heartbreakers - I Need You
TTITLE9=Tom Petty and the Heartbreakers with Jeff Lynne and Dhani Harris
TTITLE9=on - Handle With Care
TTITLE10=Billy Preston - Isn't It A Pity
TTITLE11=Ringo Starr - Photograph
TTITLE12=Ringo Starr - Honey Don't
TTITLE13=Paul McCartney - For You Blue
TTITLE14=Paul McCartney and Eric Clapton - Something
TTITLE15=Paul McCartney - All Things Must Pass
TTITLE16=Paul McCartney and Eric Clapton - While My Guitar Gently Weeps
TTITLE17=Billy Preston - My Sweet Lord
TTITLE18=Eric Clapton and Band - Wah Wah
TTITLE19=Joe Brown - I'll See You In My Dreams
EXTD=
EXTT0=
EXTT1=
EXTT2=
EXTT3=
EXTT4=
EXTT5=
EXTT6=
EXTT7=
EXTT8=
EXTT9=
EXTT10=
EXTT11=
EXTT12=
EXTT13=
EXTT14=
EXTT15=
EXTT16=
EXTT17=
EXTT18=
EXTT19=
PLAYORDER=
